<svg id="Layer_1" data-name="Layer 1" xmlns="http://www.w3.org/2000/svg" viewBox="0 0 677.67 190">
  <title>Logo temp</title>
  <g>
    <g>
      <path d="M311.22,489.35l-1.56,3.14c-1.36,2.71-2.81,5.49-4.37,8.37h41.35v7.49a34,34,0,0,0,0,67.93v7.2H171v-7.2a34,34,0,0,0,0-67.93v-7.49h41.35c-1.55-2.88-3-5.66-4.37-8.37-.53-1.06-1-2.11-1.55-3.14H159.52V595H358.15V489.35ZM171,519.87a22.45,22.45,0,0,1,0,44.9Zm175.61,44.9a22.45,22.45,0,0,1,0-44.9Z" transform="translate(-159.52 -405)"/>
      <path d="M264.59,564v19.46H253.08V564a22.46,22.46,0,0,0,11.51,0Z" transform="translate(-159.52 -405)"/>
      <path d="M289.55,527.81c-.24.37-.47.74-.7,1.11-2.62,4.19-5.18,8.18-7.61,11.89,0,.5.05,1,.05,1.51a22.49,22.49,0,0,1-15.65,21.4q-.51.16-1.05.3a22.46,22.46,0,0,1-11.51,0c-.36-.09-.7-.19-1.05-.3a22.5,22.5,0,0,1-15.65-21.4c0-.51,0-1,.05-1.51-2.42-3.71-5-7.7-7.61-11.89-.23-.37-.46-.74-.7-1.11a34,34,0,0,0,25,48,34,34,0,0,0,39.73-33.48A33.73,33.73,0,0,0,289.55,527.81Z" transform="translate(-159.52 -405)"/>
      <path d="M309.37,455.54c0,7.81-3.72,19.14-11.1,33.81q-2.75,5.44-6.16,11.51-2.76,4.9-5.95,10.2c-1.35,2.23-2.7,4.42-4,6.55-2.21,3.53-4.37,6.87-6.38,9.95-5.07,7.71-9.26,13.7-11.16,16.38-.68,1-1.07,1.5-1.09,1.53l-4.66,6.44-4.67-6.44s-.41-.56-1.09-1.53c-1.9-2.68-6.09-8.67-11.15-16.38-2-3.08-4.18-6.42-6.38-9.95-1.34-2.13-2.69-4.32-4-6.55q-3.2-5.3-6-10.2-3.42-6.06-6.16-11.51c-7.38-14.67-11.1-26-11.1-33.81a50.54,50.54,0,1,1,101.07,0Z" transform="translate(-159.52 -405)"/>
    </g>
    <g>
      <path d="M405.79,523.65s7.3,8.4,17.2,8.4c5.4,0,10.2-2.9,10.2-8.4,0-12.1-33.4-11.1-33.4-33.2,0-11.5,10-20,23.7-20,8.3,0,21.1,3.91,21.1,14v6.6h-11.8v-3.2c0-3.3-4.7-5.5-9.4-5.5-6,0-10.4,3.1-10.4,7.6,0,12.1,33.4,9.7,33.4,33,0,11.3-8.7,20.9-23.6,20.9a32.71,32.71,0,0,1-24.4-11Z" transform="translate(-159.52 -405)"/>
      <path d="M458.89,504.65a2,2,0,0,0-2.2-2.2h-4v-10.8H464c4.7,0,6.4,2.1,6.4,4.9v2h.2s4.3-8.1,16.2-8.1c13.8,0,22.7,10.9,22.7,26.7,0,16.2-10,26.7-23.4,26.7-10.1,0-14.6-6.7-14.6-6.7h-.2s.2,1.8.2,4.4v21.1h-12.6Zm24.9,28.5c7,0,12.9-5.7,12.9-15.8,0-9.7-5.2-16-12.7-16-6.6,0-12.8,4.8-12.8,16.1C471.19,525.35,475.39,533.15,483.79,533.15Z" transform="translate(-159.52 -405)"/>
      <path d="M543.79,490.45c15.6,0,28,11.1,28,26.7s-12.4,26.7-28,26.7-27.9-11-27.9-26.7S528.29,490.45,543.79,490.45Zm0,42.6c8.3,0,15.2-6.4,15.2-15.9s-6.9-15.9-15.2-15.9-15.1,6.5-15.1,15.9S535.59,533.05,543.79,533.05Z" transform="translate(-159.52 -405)"/>
      <path d="M583.29,504.65a2,2,0,0,0-2.2-2.2h-4v-10.8h11.6c4.5,0,6.8,1.9,6.8,6.2v3a23.26,23.26,0,0,1-.2,3.2h.2c2.3-7.3,8.4-13.1,16.2-13.1a16.3,16.3,0,0,1,2.3.2v12.5a22.57,22.57,0,0,0-3.1-.2,14.36,14.36,0,0,0-13.9,10.7,30.86,30.86,0,0,0-1.1,8.3v20.2h-12.6Z" transform="translate(-159.52 -405)"/>
      <path d="M624.69,501.75h-6.61v-10.1H625v-13.9h12.4v13.9H649v10.1h-11.6v20.6c0,8.4,6.6,9.6,10.1,9.6a11.68,11.68,0,0,0,2.3-.2v11.1a23.37,23.37,0,0,1-3.9.3c-7.1,0-21.2-2.1-21.2-19.2Z" transform="translate(-159.52 -405)"/>
      <path d="M660.48,484.65a2,2,0,0,0-2.2-2.2h-4v-10.8h12.1c4.7,0,6.81,2.1,6.81,6.8v14.8c0,2.5-.2,4.3-.2,4.3h.2s4.5-7.1,15.3-7.1c13.8,0,22.6,10.9,22.6,26.7,0,16.2-9.9,26.7-23.4,26.7-10.6,0-15.2-7.2-15.2-7.2h-.2a26.59,26.59,0,0,1,.2,3.4v2.6h-12Zm25,48.5c6.9,0,12.8-5.7,12.8-15.8,0-9.7-5.2-16-12.7-16-6.6,0-12.8,4.8-12.8,16.1C672.79,525.35,677,533.15,685.49,533.15Z" transform="translate(-159.52 -405)"/>
      <path d="M722.68,504.65a2,2,0,0,0-2.2-2.2h-4v-10.8h11.7c4.5,0,6.7,2.1,6.7,5.7v1.5a14.1,14.1,0,0,1-.2,2.2h.2a19.62,19.62,0,0,1,18-10.6c11.3,0,17.8,5.9,17.8,19.4v19.9a2,2,0,0,0,2.2,2.2h4v10.7h-12.1c-4.8,0-6.8-2-6.8-6.8v-23.4c0-6.2-1.6-10.4-8-10.4a14,14,0,0,0-13.7,10.4,21.24,21.24,0,0,0-1,6.8v23.4H722.68Z" transform="translate(-159.52 -405)"/>
      <path d="M786.58,484.65a2,2,0,0,0-2.2-2.2h-4v-10.8h12.1c4.7,0,6.8,2.1,6.8,6.8v14.8c0,2.5-.2,4.3-.2,4.3h.2s4.5-7.1,15.3-7.1c13.81,0,22.61,10.9,22.61,26.7,0,16.2-9.9,26.7-23.4,26.7-10.61,0-15.21-7.2-15.21-7.2h-.2a26.59,26.59,0,0,1,.2,3.4v2.6h-12Zm25,48.5c6.91,0,12.81-5.7,12.81-15.8,0-9.7-5.2-16-12.71-16-6.6,0-12.8,4.8-12.8,16.1C798.88,525.35,803.08,533.15,811.58,533.15Z" transform="translate(-159.52 -405)"/>
    </g>
  </g>
</svg>
